<svg width="77" height="71" viewBox="0 0 77 71" fill="none" xmlns="http://www.w3.org/2000/svg">
<path d="M47.7004 54.6019H54.4316C57.7097 54.6019 59.3487 54.6019 60.6008 53.9639C61.7022 53.4028 62.5976 52.5073 63.1588 51.406C63.7967 50.1539 63.7967 48.5149 63.7967 45.2368V25.9213C63.7967 22.6432 63.7967 21.0041 63.1588 19.752C62.5976 18.6507 61.7022 17.7553 60.6008 17.1941C59.3487 16.5562 57.7097 16.5562 54.4316 16.5562H17.5565C14.2784 16.5562 12.6394 16.5562 11.3873 17.1941C10.286 17.7553 9.39053 18.6507 8.82937 19.752C8.19141 21.0041 8.19141 22.6432 8.19141 25.9213V45.2368C8.19141 48.5149 8.19141 50.1539 8.82937 51.406C9.39053 52.5073 10.286 53.4028 11.3873 53.9639C12.6394 54.6019 14.2784 54.6019 17.5565 54.6019H24.2877" stroke="#D34A20" stroke-linecap="round"/>
<path d="M19.8984 37.0425L33.4232 50.5672C35.0697 52.2137 35.9947 54.4469 35.9947 56.7755V60.4552M19.8984 37.0425H25.7516M19.8984 37.0425V42.8957" stroke="#D34A20" stroke-linecap="round" stroke-linejoin="round"/>
<path d="M52.0898 37.0425L38.5651 50.5672C36.9186 52.2137 35.9936 54.4469 35.9936 56.7755V60.4552M52.0898 37.0425H46.2367M52.0898 37.0425V42.8957" stroke="#D34A20" stroke-linecap="round" stroke-linejoin="round"/>
<path d="M35.9934 25.3359V56.0652M35.9934 25.3359L31.6035 29.7258M35.9934 25.3359L40.3833 29.7258" stroke="#D34A20" stroke-linecap="round" stroke-linejoin="round"/>
</svg>
