<svg width="411" height="233" viewBox="0 0 411 233" fill="none" xmlns="http://www.w3.org/2000/svg">
<path d="M0.761719 224.387C0.761719 228.805 4.34344 232.387 8.76172 232.387H402.233C406.651 232.387 410.233 228.805 410.233 224.387V8.92088C410.233 4.5026 406.651 0.920873 402.233 0.920873H8.76172C4.34344 0.920873 0.761719 4.50259 0.761719 8.92087V224.387Z" fill="white"/>
<g clip-path="url(#clip0_5223_9563)">
<path d="M140.729 156.332L106.309 133.925C106.309 133.925 101.992 131.443 101.004 126.82C99.6164 120.328 104.192 114.763 104.192 114.763L148.862 143.855C152.308 146.1 153.249 150.695 151.034 154.161C148.758 157.721 144.082 158.506 140.727 156.332H140.729Z" fill="#38D200"/>
<path d="M108.134 109.961C108.134 109.961 102.862 106.778 102.862 99.4145C102.862 92.0768 108.132 88.9324 108.132 88.9324L126.949 76.6173C128.604 75.5679 130.607 75.2138 132.523 75.6316C134.438 76.0494 136.111 77.2056 137.18 78.8492C138.248 80.4929 138.626 82.4915 138.23 84.4115C137.834 86.3316 136.698 88.0183 135.067 89.1057L119.207 99.4325L146.228 117.031C146.228 117.031 151.093 119.818 152.051 124.522C153.388 131.085 148.871 136.492 148.871 136.492L108.134 109.961ZM108.034 157.52C109.8 157.52 111.058 156.959 112.284 156.164L121.47 150.181L112.284 144.199C111.046 143.401 109.747 142.843 108.034 142.843C107.061 142.829 106.096 143.009 105.193 143.371C104.291 143.734 103.469 144.272 102.777 144.955C102.084 145.638 101.534 146.451 101.159 147.349C100.783 148.246 100.59 149.209 100.59 150.181C100.59 151.154 100.783 152.117 101.159 153.014C101.534 153.911 102.084 154.725 102.777 155.408C103.469 156.091 104.291 156.629 105.193 156.992C106.096 157.354 107.061 157.534 108.034 157.52Z" fill="#0473EA"/>
<path d="M143.551 92.0938C141.784 92.0938 140.526 92.6542 139.3 93.4488L130.113 99.4315L139.3 105.414C140.538 106.213 141.838 106.771 143.551 106.771C144.514 106.771 145.469 106.581 146.359 106.212C147.249 105.843 148.058 105.303 148.74 104.621C149.421 103.94 149.962 103.131 150.331 102.241C150.699 101.35 150.889 100.396 150.889 99.4322C150.889 98.4685 150.699 97.5143 150.331 96.6239C149.962 95.7336 149.421 94.9246 148.74 94.2431C148.058 93.5617 147.249 93.0212 146.359 92.6524C145.469 92.2836 144.514 92.0937 143.551 92.0938Z" fill="#38D200"/>
<path d="M181.767 134.226C183.709 134.226 185.521 133.7 186.936 132.481V135.214C185.355 136.3 183.478 136.761 181.503 136.761C176.529 136.761 173.074 133.303 173.074 128.332C173.074 123.393 176.63 119.937 181.569 119.937C183.511 119.937 185.322 120.497 186.771 121.583V124.578C185.487 123.196 183.709 122.472 181.733 122.472C178.276 122.472 175.84 124.876 175.84 128.331C175.84 131.789 178.31 134.226 181.767 134.226ZM192.566 136.465H189.898V115.088L192.566 116.737V122.999C193.784 121.123 195.727 119.938 198.196 119.938C202.279 119.938 204.452 122.933 204.452 126.917V136.465H201.752V127.378C201.752 124.217 200.369 122.538 197.537 122.538C194.541 122.538 192.563 125.106 192.563 128.333L192.566 136.465ZM221.013 133.697C219.664 135.607 217.589 136.759 215.054 136.759C210.313 136.759 206.922 133.237 206.922 128.43C206.922 123.526 210.313 119.935 215.054 119.935C217.589 119.935 219.664 121.12 221.013 123.064V120.231H223.713V136.463H221.013V133.697ZM209.687 128.397C209.687 131.755 212.025 134.224 215.317 134.224C218.642 134.224 221.013 131.755 221.013 128.397C221.013 124.972 218.642 122.47 215.317 122.47C212.025 122.472 209.687 124.974 209.687 128.399V128.397ZM230.528 136.465H227.861V120.234H230.528V123.69C231.812 121.286 233.887 119.937 236.455 119.937V122.999C233.228 122.538 230.528 124.711 230.528 128.728V136.465ZM263.782 129.386H250.974C251.37 132.317 253.674 134.259 256.901 134.259C258.975 134.259 260.984 133.667 262.696 132.448V135.016C260.951 136.202 258.975 136.762 256.901 136.762C251.797 136.762 248.144 133.469 248.144 128.495C248.144 123.622 251.239 119.935 256.145 119.935C260.82 119.935 263.883 123.392 263.883 128.034C263.883 128.487 263.85 128.939 263.782 129.386ZM251.007 127.215H261.05C260.786 124.449 259.041 122.408 256.177 122.408C253.213 122.406 251.435 124.481 251.007 127.213V127.215ZM269.478 136.465H266.811V120.234H269.478V123.69C270.762 121.286 272.836 119.937 275.404 119.937V122.999C272.179 122.538 269.478 124.711 269.478 128.728V136.465ZM291.242 129.386H278.434C278.828 132.317 281.134 134.259 284.36 134.259C286.435 134.259 288.443 133.667 290.155 132.448V135.016C288.41 136.202 286.435 136.762 284.36 136.762C279.257 136.762 275.604 133.469 275.604 128.495C275.604 123.622 278.698 119.935 283.604 119.935C288.279 119.935 291.341 123.392 291.341 128.034C291.342 128.487 291.309 128.939 291.242 129.386ZM278.467 127.215H288.508C288.245 124.449 286.5 122.408 283.636 122.408C280.673 122.406 278.897 124.481 278.467 127.213V127.215ZM307.251 133.678C305.935 135.621 303.828 136.806 301.292 136.806C296.551 136.806 293.159 133.282 293.159 128.475C293.159 123.572 296.551 119.981 301.292 119.981C303.828 119.981 305.935 121.2 307.251 123.175V115.092L309.951 116.741V136.464H307.251V133.678ZM295.926 128.443C295.926 131.801 298.263 134.271 301.556 134.271C304.881 134.271 307.251 131.801 307.251 128.443C307.251 125.019 304.881 122.517 301.556 122.517C298.263 122.517 295.926 125.017 295.926 128.443ZM241.115 131.07C241.115 133.342 242.498 134.231 244.243 134.231C245.598 134.244 246.923 133.829 248.029 133.045V135.647C246.908 136.47 245.362 136.799 244.012 136.799C240.555 136.799 238.448 135.251 238.448 130.872V115.084L241.115 116.733V131.07ZM245.426 120.021C245.199 119.874 244.945 119.773 244.679 119.724C244.413 119.675 244.14 119.678 243.876 119.735C243.611 119.791 243.36 119.899 243.138 120.052C242.915 120.206 242.724 120.401 242.577 120.628C242.43 120.855 242.329 121.109 242.28 121.375C242.23 121.641 242.234 121.914 242.291 122.178C242.347 122.443 242.455 122.694 242.608 122.917C242.761 123.139 242.957 123.33 243.184 123.477L243.241 123.513C243.572 123.725 243.957 123.838 244.351 123.838C244.744 123.838 245.129 123.725 245.46 123.513L248.113 121.812L245.426 120.021ZM178.639 110.819C180.548 110.819 181.931 109.996 181.931 108.514C181.931 107.625 181.471 106.934 180.25 106.44L176.397 104.893C174.422 104.037 173.335 102.917 173.335 100.81C173.335 97.9781 175.607 96.1999 178.899 96.1999C180.808 96.1999 182.586 96.7266 183.838 97.6817V100.484C182.357 99.1666 180.545 98.4095 178.934 98.4095C177.221 98.4095 176.003 99.1996 176.003 100.517C176.003 101.504 176.464 102.097 177.748 102.591L181.601 104.139C183.675 105.028 184.631 106.278 184.631 108.024C184.631 111.118 182.128 113.028 178.606 113.028C176.465 113.028 174.522 112.435 173.107 111.383V108.481C174.819 110.094 176.729 110.819 178.639 110.819ZM189.702 107.296C189.702 109.568 191.084 110.457 192.83 110.457C194.184 110.469 195.508 110.054 196.613 109.271V111.873C195.492 112.696 193.945 113.025 192.595 113.025C189.138 113.025 187.032 111.478 187.032 107.099V92.9475L189.698 91.2969L189.702 107.296ZM211.531 109.962C210.181 111.873 208.106 113.025 205.571 113.025C200.83 113.025 197.439 109.502 197.439 104.695C197.439 99.7908 200.83 96.1999 205.571 96.1999C208.106 96.1999 210.181 97.3854 211.531 99.3286V96.4986H214.231V112.729H211.531V109.962ZM200.204 104.662C200.204 108.021 202.542 110.49 205.834 110.49C209.16 110.49 211.531 108.021 211.531 104.662C211.531 101.238 209.16 98.7351 205.834 98.7351C202.542 98.7351 200.204 101.238 200.204 104.662ZM221.046 112.729H218.378V96.4986H221.046V99.2641C222.264 97.3876 224.206 96.2022 226.676 96.2022C230.759 96.2022 232.931 99.1988 232.931 103.183V112.731H230.232V103.644C230.232 100.483 228.849 98.8042 226.018 98.8042C223.021 98.8042 221.043 101.372 221.043 104.599L221.046 112.729ZM249.493 109.897C248.176 111.84 246.069 113.026 243.534 113.026C238.793 113.026 235.401 109.502 235.401 104.695C235.401 99.7908 238.793 96.1999 243.534 96.1999C246.069 96.1999 248.176 97.4184 249.493 99.3939V92.9452L252.193 91.2969V112.729H249.493V109.897ZM238.167 104.662C238.167 108.021 240.505 110.49 243.797 110.49C247.123 110.49 249.493 108.021 249.493 104.662C249.493 101.238 247.123 98.7351 243.797 98.7351C240.507 98.7351 238.167 101.238 238.167 104.662ZM298.882 109.897C297.565 111.84 295.457 113.026 292.922 113.026C288.181 113.026 284.789 109.502 284.789 104.695C284.789 99.7908 288.181 96.1999 292.922 96.1999C295.457 96.1999 297.565 97.4184 298.882 99.3939V92.9452L301.581 91.2969V112.729H298.882V109.897ZM287.556 104.662C287.556 108.021 289.893 110.49 293.186 110.49C296.511 110.49 298.882 108.021 298.882 104.662C298.882 101.238 296.511 98.7351 293.186 98.7351C289.895 98.7351 287.556 101.238 287.556 104.662ZM269.183 109.962C267.833 111.873 265.758 113.025 263.223 113.025C258.482 113.025 255.091 109.502 255.091 104.695C255.091 99.7908 258.482 96.1999 263.223 96.1999C265.758 96.1999 267.833 97.3854 269.183 99.3286V96.4986H271.883V112.729H269.183V109.962ZM257.857 104.662C257.857 108.021 260.194 110.49 263.487 110.49C266.812 110.49 269.183 108.021 269.183 104.662C269.183 101.238 266.812 98.7351 263.487 98.7351C260.192 98.7351 257.857 101.238 257.857 104.662ZM278.698 112.729H276.031V96.4986H278.698V99.9558C279.981 97.552 282.056 96.2022 284.624 96.2022V99.2641C281.397 98.8034 278.698 100.976 278.698 104.993V112.729ZM193.461 99.9558C193.745 100.141 194.072 100.254 194.41 100.283C194.749 100.312 195.089 100.257 195.401 100.123C195.713 99.9882 195.988 99.7788 196.199 99.5129C196.411 99.247 196.553 98.9329 196.614 98.5986C196.663 98.3314 196.658 98.0573 196.6 97.792C196.542 97.5267 196.432 97.2755 196.277 97.053C196.121 96.8305 195.924 96.6407 195.695 96.4948L195.638 96.4595C195.306 96.2486 194.921 96.1372 194.527 96.1385C194.134 96.1398 193.749 96.2539 193.419 96.467L190.768 98.1739L193.461 99.9558Z" fill="#525355"/>
</g>
<defs>
<clipPath id="clip0_5223_9563">
<rect width="210.078" height="82.5307" fill="white" transform="translate(100.461 75.3887)"/>
</clipPath>
</defs>
</svg>
